<?xml version="1.0" encoding="UTF-8"?> <svg xmlns="http://www.w3.org/2000/svg" xmlns:xlink="http://www.w3.org/1999/xlink" width="53.99" height="66.894" viewBox="0 0 53.99 66.894"><defs><clipPath id="a"><rect width="53.99" height="66.894" fill="#694d1e"></rect></clipPath></defs><g transform="translate(-481 -315)"><path d="M591.141,328.17a6.585,6.585,0,1,0-6.586-6.585,6.587,6.587,0,0,0,6.586,6.585Zm0,0" transform="translate(-85.973 0)" fill="#694d1e"></path><g transform="translate(481 315)"><g transform="translate(0)" clip-path="url(#a)"><path d="M515.343,497.376a14.554,14.554,0,1,1-19.842-17.34v-6.173a20.353,20.353,0,1,0,24.328,28.011l-2.3-4.516-2.186.019Zm0,0" transform="translate(-481 -446.891)" fill="#694d1e"></path><path d="M624.348,451.206l-8.821-17.341a3.86,3.86,0,0,0-3.445-2.114h-11.3v-2.577h9.723a3.04,3.04,0,0,0,2.9-2.9,2.9,2.9,0,0,0-2.9-2.9h-9.723v-8.737a5.8,5.8,0,1,0-11.6,0v18.93a5.917,5.917,0,0,0,5.916,5.917h14.608l7.746,15.228a3.866,3.866,0,1,0,6.891-3.506Zm0,0" transform="translate(-570.82 -392.904)" fill="#694d1e"></path></g></g></g></svg> 