<?xml version="1.0" encoding="UTF-8"?> <!-- Generator: Adobe Illustrator 23.0.3, SVG Export Plug-In . SVG Version: 6.00 Build 0) --> <svg xmlns="http://www.w3.org/2000/svg" xmlns:xlink="http://www.w3.org/1999/xlink" id="Capa_1" x="0px" y="0px" viewBox="0 0 199 181.4" style="enable-background:new 0 0 199 181.4;" xml:space="preserve"> <style type="text/css"> .st0{fill-rule:evenodd;clip-rule:evenodd;fill:#972226;} .st1{fill:#972226;} </style> <g transform="translate(-79 -152)"> <path class="st0" d="M110.9,313.3l0.6-0.1c-0.2,0.2-0.4,0.3-0.7,0.3C110.9,313.4,110.9,313.3,110.9,313.3 M108.2,313.9l2.3-0.5 c0.4,1.5-0.8,4.4-2.1,2.9C108.6,315.5,108.5,314.6,108.2,313.9z M106.6,315.1l-0.1-0.6c0.1,0.1,0.2,0.3,0.3,0.4 C106.8,314.9,106.7,315,106.6,315.1z M107.2,317.4l-0.1-0.3C107.1,317.2,107.2,317.3,107.2,317.4L107.2,317.4z M108.3,322.1 l-0.4-1.5c0.2,0.2,0.5,0.3,0.6,0.7C108.3,321.5,108.4,321.9,108.3,322.1L108.3,322.1z M108.7,323.8l-0.3-1.4 C108.7,322.8,108.8,323.4,108.7,323.8L108.7,323.8z M110.8,331.1c-0.5-0.6-0.8-1.4-1-2.2l-0.8-3.4 C109.7,327.3,110.3,329.2,110.8,331.1L110.8,331.1z M114.3,333.3c-1-0.2-2-0.7-2.7-1.4c-0.9-3.4-1.8-6.8-2.9-10.5 c0.2-0.5,1.3-0.6,0.5-1.4c0.1,0.3,0,0.6-0.2,0.7c-0.7-1.5-2.1-2.7-0.9-4c0.3,0.2,0.6,0.4,0.8,0.7c-0.2,0.3-0.1,0.8-0.4,1 c2.6,0.1,2.3,3.1,3.1,5.3c0.3,1,1.3,2.9,0.7,2.9C112.9,328.6,113.6,330.9,114.3,333.3L114.3,333.3z M131.3,330l-3.7,0.8 c-0.3-0.7-0.8-1.2-1.4-1.6c0.7,0.4-0.6,1.5,0.1,1.3c-0.3-0.5,0.3-0.5,0.4-0.8c0.3,0.4,0.5,0.7,0.6,1.1l-6.6,1.5 c-0.3-1.6-1-3.2-1.9-4.6c0.3,1.6,0.7,3.2,1.2,4.8l-3.2,0.7c-1.2-0.6-1.3-3.4-1.9-4.2c-0.1,1.5,0.4,3.1,1.4,4.3 c-0.5,0.1-1,0.1-1.5,0c-0.2-0.6-0.5-1.3-0.8-1.9c-0.2-0.5,0.7-0.3,0.4-1c-0.4-0.4-0.4,0-0.7-0.3c0-1.8-0.5-3.6-1.4-5.2 c0.2,0,0.3,0.1,0.4,0.1c0.1-0.8-0.2-1.6-0.7-2.3c-0.5-2-1-5.2-2.2-5.9c0.6-0.2,0.1-1.7,1-1.1c0-0.2-0.2-0.4-0.3-0.6 c0.3,0,0.3,0.2,0.6,0.1c-0.3-0.8-0.2-1.3,0.3-1.6c0.4,0.9,1.4,0.7,1.8,1.6c-0.3-0.8-0.6-1.6-0.8-2.4l1.6-0.4l1.7,7.4 c0.7,2.8,3.5,4.6,6.4,4l1-0.2c-0.1,0.3-0.1,0.7,0.1,1c0.7-0.3,0.7,1,1,0c0,0.3,0.3,1.3,0.3,0.6c0-0.2-0.1-0.4-0.1-0.6 c-0.3,0-0.4-0.2-0.6,0.1c-0.2-0.3-0.4-0.7-0.5-1.1l4.7-1.1c0.4,1.9,0.9,3.7,1.7,5.5c0.4,0,0.3-0.4,0.5-0.6c0.1,0.5,0.6,0.1,0.7,0.5 C131,328.7,131.1,329.4,131.3,330L131.3,330z M158,323.9l-7.1,1.6c-0.2-0.4-0.3-1-0.6-1.1c0.1,0.4,0.2,0.8,0.4,1.2l-2.3,0.5 c-0.2-0.3-0.4-0.5-0.7-0.7c0,0.3,0.1,0.5,0.3,0.8l-3.4,0.8c-0.1-1.4-0.6-2.7-1.3-3.9c0.6,1.7,0.5,2.6,0.9,4l-3.4,0.8 c-0.1-0.1-0.3-0.2-0.4-0.3c0,0.1,0.1,0.3,0.1,0.4l-6,1.4c-0.1-0.7-0.1-1.5,0-2.2c0.3,0.4,0.6,1.2,0.6,0.8c-0.4-1.2-0.1-3.7-1.5-4.9 c0.3,1.4,0.8,2.6,1.1,3.7c-0.5,0.1-0.5-0.3-0.8,0.2c0,0.9,0,1.7,0.2,2.6l-2.3,0.5c-0.3-1.1-0.3-2.4-0.9-3.3 c-0.3,0.2-0.1,0.7-0.6,0.8c-0.8-0.4-0.7-2.2-1.3-3c0.5-0.1,0.4-0.6,0.6-0.8c-0.2-0.4-0.4-0.7-0.5-1.1l5.4-1.2 c0.1,0.3,0.3,0.6,0.4,0.9c0-0.3,0-0.7,0-1l6.7-1.5c0.1,0,0.2,0.1,0.3,0.1l-0.1-0.1l6.9-1.6c0.5,1.5,0.9,3,1.1,4.5 c0.3-0.6,0.5,1.5,1.1,1.3c-0.8-1.5-1.1-3.8-1.6-6l4.2-1c0.2,0.2,0.4,0.3,0.6,0.5c0.2,0.4,0.4,0.8,0.7,1.1c-0.1-0.2-0.1-0.5-0.1-0.7 c0.3,0.2,0.5,0.4,0.8,0.6c0.3,1.2,0.2,2.3,0.7,3.3c0.1-0.5,0.2-1.1,0.7-1.3C157.5,321.4,157.2,323.3,158,323.9L158,323.9z M162.4,322.9l-4.3,1c-0.1-1.6-0.5-3.2-2.1-3.9c0-0.4,0-0.8-0.1-1.1C157.9,320.3,160.1,321.7,162.4,322.9L162.4,322.9z M264.2,230.6l11.9,51.8c-0.5-0.1-1-0.1-1.3-0.5c-0.2,0.7,0.4,0.8,0.1,1.5c0.8,0.1,0.2-0.7,0.9-0.6c0.1,0.3,0.3,0.4,0.5,0.6 l0.1,0.4c-0.5-0.1,0.2,1.7,0.5,2.6c-0.4,0.6-0.8,0.3-1,1.1c0.6,0.4,1.2,0.8,1.7,1.4l0.4,1.7c0.7,3.1-1.2,6.3-4.4,7L271,298 c-0.5-1.4-1.1-3.3-1.4-4.5c-0.1,1.6,0.4,3.2,1.3,4.5l-5.2,1.2c-0.2-0.7-0.5-1.3-0.9-2c0.3-0.2,0.6,0.2,0.6-0.1 c-2.4-3.7-0.7-0.1-0.2,2.2l-27.8,6.4c-0.2-1-1-2.1-1.3-1.9c0.5,0.5,0.7,1.3,1.1,1.9l-6.9,1.6c1.8-2.4,3.5-4.9,4.9-7.6 c0.1,1.3,0.6,2.5,1.3,3.5c-0.7-1.2-0.8-2.6-1.1-3.9c0.3-0.5,0.5-1,0.8-1.5l26.9-6.2c0.1,0.4,0.1,0.8,0.2,1.2 c0.3-0.1,0.3,0.3,0.5,0.3c-0.3-0.5-0.5-1-0.5-1.6l1.2-0.3c0.8-0.2,1.6-0.6,2.3-1.1c0.6,1.2,0.5,2.5,1.3,3.1 c-0.1-0.3-0.2-0.7,0.3-0.7c-0.9-0.1-0.7-2.2-1.2-2.7c1.3-1.3,1.8-3.2,1.4-4.9l-12.1-52.7L264.2,230.6z M255.1,300.6 c-0.5,0.2-1.5-3.7-0.2-1C255,299.8,254.9,300.2,255.1,300.6L255.1,300.6z M149.4,325c-0.9-0.7-0.9-1.3-0.8-2.5 C149.5,322.6,148.5,324.3,149.4,325L149.4,325z M124.8,328.4c0,0.6-0.4-0.3-0.6-0.1c0.2-0.8,0.2-1-0.5-1.4c0-0.2,0.2-0.2,0.2,0 c-0.5-2.7,0-0.4,1,0.9c0.5,0.4-0.6-0.5-0.5,0.3C124.4,328.2,124.6,328.4,124.8,328.4L124.8,328.4z M259.2,296.7 c-0.4-0.4-0.7-1-1-1.5C258.8,295.2,259,295.9,259.2,296.7L259.2,296.7z M144.9,322.7c-0.7,0.3-1.3-1.7-0.4-1.7 C144.3,321.5,144.7,322.2,144.9,322.7L144.9,322.7z M97.4,268.3c-0.4,0.4-0.5-1.6-0.5-2.1C97.8,266.7,97.2,267.1,97.4,268.3 L97.4,268.3z M254.1,205.2c-0.9-1.5-1.6-3.1-2.1-4.8c0.4,0,0.3-0.4,0.2-0.7C252.7,201.6,253.4,203.4,254.1,205.2L254.1,205.2z M248.5,194.1c-0.6-0.1-0.8-0.9-1-1.8C247.8,192.9,248.4,193.1,248.5,194.1L248.5,194.1z M269.9,284.3c-0.3-0.3-0.2-1.3-0.8-1.8 C269.3,282.1,270.3,283.7,269.9,284.3L269.9,284.3z M272.4,283.5c-0.8,0.1-0.4-1.1-0.7-2.1c0,1.1-0.4,0.8-0.2-0.2 C272.5,281.5,271.7,283,272.4,283.5L272.4,283.5z M271.6,280.6c-0.4-0.3-0.5-1.1-0.8-1.6c0.1-0.2,0.8,1.1,1.2,1.5 C271.8,280.5,271.6,280.4,271.6,280.6L271.6,280.6z M91.7,230.9c-0.1,0.4,1,1.3,1,2.4c-0.4,0.5-0.7,1.1-0.8,1.7 c0.5,1,1.6,1.2,2.3,1.9c-0.3,1,0.1,1.4,0.6,2.5c0.2,0.3-0.1,0.4-0.3,0.5c1,1.7-0.9,3.4,0.7,4.9c-0.2,0.7,0,1.9-1.1,1.6 c-0.1-1.4-0.2-2.7-0.5-4.1c0.3-0.5,0.6,0.1,0.9-0.4c-0.1-1.2-0.7-2.4-0.6-3.6c-0.6-0.2-1.2,0.6-1.6-0.5c-0.2,0.4-0.9,0.3-1.1,0.7 c0.1,0.8,0.7,1,0.8,1.8c-0.4,0.6-0.9,1.2-1.2,1.8c0.3,0.4,0.4,1.1,0.9,1.1c-1,2.9,3.2,1.7,2.3,4.6c1,0.6,0.3,2.4,1.3,3 c0.2,0.6-0.1,0.9-0.1,1.4c0.6,1,1.6,1.4,1.8,2.5c-0.4,0.8-0.5-1.2-0.9-1.3c0,1.6,0.4,3.2,1.3,4.6c0.3,2.6,0.2,4.7,1.9,7.3 c-0.6-0.1-0.2,0.5-0.2,0.9c-0.7-1.5-2.3-2.8-2.3-4.8c0,0,0.4,0.1,0.4,0.1c-0.3-1.1-0.8-2-1.2-3.3c-1-4.3-2.3-8.5-3.7-12.6 c-0.4,0.2,0,0.8-0.6,0.8c0.2-0.9-0.3-0.9-0.6-1c-0.1-1.2-0.3-2.3-0.6-3.4c1.3-0.8,0.6-3.4-0.1-4.8c0.3-0.7,0.7,0.9,1.2,0.8 c0.3-0.7-0.2-2.2-0.6-3.6c0.2,0,0.2,0.4,0.5,0.3c0.4-0.3-0.7-0.4-0.5-1.2c0.6-0.3,0.4,0.6,0.8,0.7c0.2-0.3,0.1-0.8,0.4-1 c-1.6-3.1-1.5-6.4-3.1-10.1c0.6-1.5-1.6-3.6-0.7-4.7c1.4,1.9,1.6,4.8,3,7.5c-0.1,0.5-0.3,1-0.5,1.4c1-0.4,0.6,3.5,1.6,3.2 C92.8,230.8,92.2,231.1,91.7,230.9L91.7,230.9z M96.4,265.9l2.2-8.2c-0.3-0.3-0.8-0.7-0.1-0.4c-0.5-0.7-0.7-1.5-0.5-2.3 c-0.1-0.2-0.2-0.2-0.3-0.4c-0.2,0.2,0.3,0.9-0.3,1.2c0.5,0.6,0.1,0.8,0.4,1.7c-0.9-0.4-0.3-1.4-0.9-2.2c0.9,1.1,0.8-2.7,0.1-2.2 c0-0.4,0.5-0.5,0.2-1.1c1.1,0.7,0.8,4.5,1.9,5.5c-0.2,0.5-0.5,1.1-0.9,1.5c0.1,0.2,0.6,0.1,0.6-0.1c0.3,0.1,0.1,0.4,0.4,1 c-0.3-0.1-0.5-0.4-0.6-0.8c-0.8,0,0.4,1.4-0.5,1.4c0.1-0.6,0-1.2-0.4-1.7c0.7-0.1,0.2-1.4,1-1.1L96.4,265.9z M94,258.9 c1.1,0.6,0.2,0.9,0.8,1.6c1.8-7.8,1.5-9.1,1.5-9.8L94,258.9z M95.8,248.8c-0.9,0.3,0.6,3-0.1,2.2c-0.5-1.4-0.9-2.7-1.2-4.2 c0.9,0.1,0.4,1.3,0.7,2.1c0.2-0.2,0.2-0.7,0.3-0.3c0.1-1.1,0-2.2-0.3-3.2c0.3,0.3,0.8,0.4,0.9,1.1c-0.2,0-0.2-0.2-0.3-0.4 c-0.1,1.9,0.7,3.5,0.6,4.3C96,250.2,96.2,249.3,95.8,248.8z M95.5,244c-0.3-0.3-0.7-0.4-0.7-1.2c0.4,0.2,0.5,0.9,0.9,1.1 c0.2-0.2,0.1-0.5,0.5-0.6c0.5,0.5-0.8,0.6-0.1,0.7c0.5,0.5-1.3-0.7-0.6,0.8c-0.4,0.1-0.3-0.7-0.4-1C95.3,243.9,95.3,244,95.5,244 L95.5,244z M95.8,243.3c0.2-1-0.1-1-0.3-1.3C96,241.2,96.7,243,95.8,243.3L95.8,243.3z M95,239.9c1-1,1,3.4,0.4,0.1 C95.4,239.8,95.2,239.9,95,239.9L95,239.9z M96.2,237c-0.4,0.1-0.8-0.1-1-0.6c0,0,0-0.1,0-0.1c0.2,0,0.2,0.2,0.3,0.4 c0.2-0.1,0.1-0.4,0.1-0.7C95.9,235.9,95.7,237,96.2,237L96.2,237z M94.4,237.4c-0.4-0.8,0.5-0.6,0.3-1.2c-0.1-0.8-0.7-2-0.4-2.6 C94.6,235,95.6,236.9,94.4,237.4L94.4,237.4z M250.9,199.3c-0.8,0.2-0.1-0.3-0.1-0.6c-1.1-0.8-0.7-1.2-1-2.4 c-0.1-0.3-0.4-2.5,0.1-0.3c0.2,1,0.6,1.9,1.1,2.8C250.8,198.9,250.9,199.2,250.9,199.3z M95.1,232.1c-0.7-0.4-2-7.1-3.2-7.7 c0.5,0.3,0.3-0.2,1-0.2C93.1,226.5,94.4,229.2,95.1,232.1L95.1,232.1z M92.9,232.4c0,0.7-0.4-1.3-0.3-1.3c0-0.6,0.6,0.2,0.6,0.7 C92.7,231.5,92.7,231.6,92.9,232.4L92.9,232.4z M93.7,230.7c-0.3,0-0.2-0.6-0.5-0.5c0.6-0.4-0.2-0.7,0.1-1.4 C93.6,229,93.7,229.9,93.7,230.7L93.7,230.7z M93.1,228.8c-0.4-0.4-0.1-1.1-0.6-1.8c0.7,0.3,1,1,0.7,1.7 C93.2,228.8,93.1,228.8,93.1,228.8L93.1,228.8z M93.9,225.8c-0.8-0.2-0.6-2-0.7-2.3C93.4,223.1,93.3,225,93.9,225.8L93.9,225.8z M91.6,224.8c-0.6,0.7-0.6-0.5-0.8-0.9C91.5,223.4,91,225,91.6,224.8L91.6,224.8z M247.8,173.1c-0.8-0.4-1.2-1.3-1.1-2.2 C247,171.7,247.6,172,247.8,173.1L247.8,173.1z M248.2,165.3c-0.5-0.1-0.7-0.7-0.9-1.3C247.9,163.9,247.9,164.8,248.2,165.3 L248.2,165.3z M246.4,160.1c-0.6,1.2-0.7-2.4-1.4-4.1c1.3,1.6,1.4,5.3,2.6,6.9c-0.6,0.1-0.5-0.1-1.1-0.4 C246.4,161.8,246.3,160.9,246.4,160.1L246.4,160.1z M159.7,178c-0.2,0.1-1.5-2.6-0.5-3C159.6,176.2,159.3,176.9,159.7,178 L159.7,178z M111.3,189.1c-0.8-0.6-0.5-1.4-0.3-2.1C111.9,187.3,111.2,188.4,111.3,189.1L111.3,189.1z M156.3,177.7 c-0.6,0.9-1.4-0.7-1.4-0.8C155.4,176,155.5,178.2,156.3,177.7L156.3,177.7z M169.4,174.5c-0.6-0.2-0.4-2.1-0.7-2.1 C169.6,171.9,169.7,173.9,169.4,174.5L169.4,174.5z M182.6,170.8c-0.7-0.2-0.5-0.9-0.6-1.6C182.5,169.6,182.7,170.2,182.6,170.8 L182.6,170.8z M184.5,168.1L107,187.9c-0.7-1.1-1.6-3-1-4.2c0,1.2,1.4,3.2,1,4.2L184.5,168.1z M251.3,176c-0.7,0.3-0.6-0.8-0.9-2 C250.2,172.6,251,175.7,251.3,176z M248.4,175.1c-0.5-0.5-0.8-1.1-1-1.8C247.9,173.7,248.1,174.5,248.4,175.1L248.4,175.1z M88.5,210.7c-1.5-0.6-1.6-5.1-2.9-8c1.6,0.6,0.6,2.5,2,3.3c0.3,0.7-0.3,0.4-0.5,0.3c0.2,0.7,0.5,1.4,1.1,2 C87.7,209.1,87.9,210.1,88.5,210.7L88.5,210.7z M83.3,207.7c-0.6-0.4-0.4-1.7-0.5-2.3c0.4,0.6,0.9,0.2,0.9-0.4 c-1.3-1.9-1-4.3-1.8-6.2c-0.4,0.4-0.4,0.1-0.9,0.4c-0.3-1.3-0.8-0.6-1-1.8c0.8-0.5,1.7,0.5,1.8-0.4c1.2,2.6,1.4,4.8,2.8,7.8 C83.1,205,83.7,206.7,83.3,207.7L83.3,207.7z M85.7,205.4c0.4-0.1,0.3,0.7,0.4,1c-0.2-0.1-0.4-0.2-0.4,0.1c-0.4,0-0.3-0.9-0.6-1 C85,204.8,85.7,206.3,85.7,205.4L85.7,205.4z M83.9,199.4c-0.2,0-0.2-0.2,0-0.2c0-0.2-0.1-0.2-0.2-0.2c0.1-0.3,0.5-0.1,0.4-0.8 c-0.7,0-0.7-0.4,0.1-0.3C84.3,198.6,83.9,198.9,83.9,199.4L83.9,199.4z M190,171.5c0.1,0.9-0.4-1.7-1-1.5c0-0.3,0.4,0.1,0.3-0.3 C190.2,169.9,189.7,170.6,190,171.5L190,171.5z M84.9,192.1c0.5,0-0.1,0.6,0,0.9c-0.3-0.5-0.7-0.7-0.9-1.3 C84.5,191.2,84.7,192.9,84.9,192.1L84.9,192.1z M129.6,181.8c-0.8-0.1-0.9-3.2-0.8-2.5C129,180.2,129.2,181,129.6,181.8 L129.6,181.8z M97.1,193l-0.2,0c0-0.1,0.1-0.2,0.1-0.2C97.1,192.9,97.1,192.9,97.1,193L97.1,193z M102.7,191.7l-0.4,0.1 c0-0.1,0-0.2,0.1-0.2C102.4,191.5,102.5,191.6,102.7,191.7L102.7,191.7z M104.9,191.2l-2,0.5c-1.9-1.2,1.3-2.7,0.4-0.3 c0.6-0.6,0.3-0.7,1.2-1.2C104.6,190.6,104.8,190.9,104.9,191.2L104.9,191.2z M164.7,177.5l-0.2,0c-0.1-0.3-0.1-0.5,0.1-0.6 C164.7,177.1,164.7,177.3,164.7,177.5L164.7,177.5z M237.7,152.7l2.5-0.6c0.3-0.1,0.6-0.1,0.8-0.1c0.2,0.4,0.4,0.7,0.7,1 c-0.6,1.1,0.9,1.8,0.5,3.2c0.5,0.5,0.8,1.3,0.9,2c0.6,0.6,0.1-1.3,0-2c-0.3-1.5-0.8-2.9-1.4-4.3c0.7,0,1.5,0.2,2.2,0.5 c-0.1,0.4-0.1,0.7,0.6,0.4c-0.2,0-0.4-0.2-0.4-0.3c1.6,0.8,2.8,2.2,3.2,4l12.6,54.8c-0.1,0.1-0.2,0.1-0.3,0.2c0.3,0.8,0.9,1.8,0,2 c0.8-0.3,0.8,0.8,1,1.1l3.7,16l-7.7,1.8l-10.3-44.8c0.1,0.1,0.2,0.1,0.3,0c-0.3-0.6,0.2-0.6,0-1.1c-0.5,0.4-0.3-1-0.7-0.8l-0.4-1.6 c0.3,0.7,0.5,1.4,0.8,1.1c-0.5-0.5-0.5-1.7-1-2.1l-0.1-0.4c0-1.1-0.2-2.1-0.7-3.1l-3.3-14.2c-0.2-1-0.7-1.9-1.4-2.6 c-0.6-1.8-1.3-3.6-1.9-5.4c0,0.1-0.1,0.3-0.2,0c0.3-0.5-0.2-0.9-0.3-1.3c0.2,0,0.3,0.1,0.4,0.1c-1.1-1.2-0.4-2.5-1.4-3.2 C236.8,153,237.3,152.9,237.7,152.7L237.7,152.7z M226.6,155.3l6.7-1.5c0.1,0.8,0.4,1.6,1,2.1c-0.1-1.4-1-1.5-0.8-2.2l0.8-0.2 c0.5,0.2,1.1,0.1,1.6-0.2c0.1,0.8,0.7,0.7,0.9,1.3c-1.4,0.9,1.1,2.2,0.1,3.3c0.9,1.1,1.4,2.5,1.3,3.9c0.1,0.1,0.1,0.1,0.2,0.2 c-1.1-0.6-2.5-0.8-3.7-0.5l-3.6,0.8c-0.3-1.6-0.9-3.1-1.8-4.4c0.6,1.5,1,3,1.3,4.5l-1.9,0.4c-0.5-2.2-1.2-4.3-2.1-6.3 C226.8,156.1,226.8,155.6,226.6,155.3L226.6,155.3z M162.9,169.9l3.5-0.8c0.4,1.4,0.9,2.7,1.5,4c0-0.9,0.1-2.9-0.8-2.5 c0.3-0.5,0.2-1.2-0.1-1.7l0.8-0.2c0.1,0.2,0.1,0.4,0.2,0.5c0-0.2-0.1-0.4,0-0.6l5.1-1.2c0.2,1,0.5,1.9,0.9,2.8 c-0.2-1.1-0.1-2.1-0.8-2.8l3.8-0.9c0.1,0.4,0.2,0.8,0.3,1.2c0.2,0.8,0.3,2.8,0.2,0.8c0.1-0.7,0-1.4-0.2-2.1l6.2-1.4 c0.4,1.3,0.9,2.3,1.3,2.5c-0.6-0.6-0.4-1.7-0.7-2.6l6.8-1.6c0.1,0.4,0.2,0.8,0.4,1.2l0.6-0.1c0-0.4,0-0.8,0-1.2l18.1-4.1 c0.2,0.3,0.2,0.8-0.2,1.1c0,0,0,0,0,0c0.3-0.1,0.2,0.6,0.5,0.5c-0.1-0.5,0.4-0.6,0.6-0.1c-0.1,0.7-0.1,1.5-0.1,2.2 c0.7-0.4,0.6,1,0.5,1.2c0.8,0.1,0.3-0.7,0.8-0.9c0.1,0.5,0.5,0.9,1,0.9c-0.4-1.1-1.4-1.1-1.9-2c0-1.1-0.2-2.1-0.7-3.1l2-0.5 c0.1,0.2,0.3,0.5,0.4,0.7c-0.1-0.2-0.1-0.5-0.1-0.8l0.7-0.2c0,0.1,0.1,0.2,0.1,0.3c2.3-0.3,2.4,3.1,2.7,4.7 c0.4-0.9,0.3,1.3,0.5,0.5c0.7-0.3-0.6-4-0.9-6.1l1.4-0.3c0,0.1,0,0.1,0,0.2c0.1-0.1,0.1-0.1,0.2-0.2l1.3-0.3 c0.1,0.7,0.4,1.4,0.9,1.9c-0.1-0.7-0.3-1.4-0.5-2l6.4-1.5c0.2,2.2,2,4.9,2.6,7.5l-2.3,0.5c-0.5-1.7-0.8-3.7-2-5.2 c0.3,1.8,0.7,3.6,1.3,5.4l-3.2,0.7c0.2-0.5-0.2-1.4-0.5-0.7c0.4,0-0.1,0.6,0.3,0.8l-2.1,0.5c0-0.6,0.2-1.3-0.4-1.6 c-0.1,0.6,0,1.2,0.2,1.7l-11.2,2.6c-0.2-0.2-0.2-1.6-0.6-2c-0.5-1.6,0.1,1.4,0.4,2.1l-22.2,5.1c-0.3-0.8-0.7-1.6-1.1-2.4 c0.4,0.8,0.7,1.6,1,2.4l-3.9,0.9c-0.1-0.3-0.3-0.5-0.6-0.7c0.1,0.2,0.2,0.5,0.3,0.8l-3.4,0.8c-0.8-1.5-0.6-2.8-1.5-4 c0.6,1.6,0.7,3.5,1.5,4l-2.7,0.6c0-0.7,0.3-1.7-0.1-1.9c-0.1,0.5-0.2,1.1-0.3,1.6c0-0.1-0.1-0.2-0.2-0.2c0.1,0.2,0.2,0.4,0.3,0.6 l-5.3,1.2c-0.1-0.6,0.2-1.7-0.5-2.1c0.3,0.9-0.1,1.4,0.5,2.1l-4.7,1.1C164.5,174.9,163.6,172.4,162.9,169.9L162.9,169.9z M162.5,169.9L162.5,169.9c0.1,0,0.1,0.1,0.1,0.1C162.6,170,162.5,170,162.5,169.9L162.5,169.9z M155,171.7l2.5-0.6 c0.2,0.4,0.3,0.8,0.5,1.1c-0.1-0.4-0.2-0.8-0.3-1.2l2.1-0.5c0.2,0.5,0.5,1.1,0.8,1.5c-0.2,0.4,0.1,1.3,0.2,1.9 c0.3,0.6,0.2-0.4,0-0.7c0.3-0.4-0.2-1.2,0.1-1.6c-0.4,0.1-0.3-0.7-0.6-0.8c0.3-0.1,0.1-0.4,0.2-0.6l0.4-0.1c0.2,0,0.3,0.1,0.4-0.1 l0.8-0.2c0.1,0.4,0.1,0.7-0.3,0.4c0.2,0.8,0.9,0.7,1.1,1.3c-0.2,2,0.9,3.2,1.5,5.8l-6.9,1.6C156.9,176.6,155.9,174,155,171.7 L155,171.7z M103.2,183.5l2.2-0.5c0.1,0.3,0.3,0.5,0.6,0.4c0-0.2-0.1-0.4-0.1-0.6l4.5-1c0.1,0.1,0.2,0.2,0.3,0.3c0-0.1,0-0.2,0-0.4 l2.1-0.5c0.4,1.7,0.7,3.2,1.9,4.4c-0.3-0.7,0.1-0.9-0.1-1.5c-0.4,0-1.1-1.8-1.3-2.9l4.7-1.1c0.2,0.9,0.6,1.8,1.2,2.5 c-0.3-0.9-0.6-1.7-0.8-2.6l17.4-4c0.8,2,1.1,3.5,1.9,5.5c-0.3-1.9-0.9-3.8-1.8-5.5l16.3-3.7c0.2,1.2,1,2.3,1,4.1 c1.5-0.3-0.1,1.9,1.1,2c-0.2-2.1-0.7-4.2-1.6-6.2l2.3-0.5c0.6,2.7,1.2,5.2,1.8,7.6l-23.7,5.4c-0.1-0.2-0.3-0.4-0.5-0.5 c0.1,0.2,0.2,0.4,0.3,0.6l-10,2.3c-0.5-2.4-1.3-4.7-2.3-6.9c0.8,1.9,0.4,4.1,1.4,4.3c0,0.9,0.1,1.9,0.4,2.7l-6.7,1.5 c-0.2-0.6-0.2-1.3-0.5-2.3c-0.5-0.2-0.6-0.9-1.4-0.6c0.6,1.1,1.1,2,1.5,2.9l-7,1.6c-0.2-1.1-1.4-1.9-0.8-2.7 c-1.2,0.8-0.3,2,0.8,2.7l-2.8,0.6c-0.7-1.9-1.4-3.8-1.9-5.7C103.4,184.8,103.3,184.2,103.2,183.5L103.2,183.5z M100.6,184.1 l2.2-0.5c0.2,0.3,0.4,0.6,0.6,0.9c-0.2,1.8,1.5,3.6,0.6,5.4c-0.3-0.3-0.8-0.2-1-0.7c0.4-0.6-0.1-0.7,0.1-1.3 c-0.8,0.2-0.2,1.7-0.4,1.9C101.5,188.2,101.3,186.1,100.6,184.1L100.6,184.1z M95.5,185.3l4.2-1c0,0.1,0,0.1-0.1,0.2 c0.9,0.7,0.8,1.6,1.1,3.1c0.4,0,0.4-0.4,0.6-0.1c-0.8,0.9-0.1,1.6,0.1,2.4c0-0.1,0-0.6,0.1-0.5c0.5,0.6-0.3,1.7,0.4,2.5l-4.2,1 c-0.2-0.5-0.3-1.1-0.3-1.7c-0.5-0.3-2-1.5-1.5-2.8c1.3,0.5,1.7,1.8,2.3,3c-0.2-0.6,0.1-0.9,0.1-1.3c-0.3-0.5-0.9-0.7-1.1-1.3 c0.4-0.1,0-0.7,0.4-0.8c-0.9-0.5-0.4-2-1-2.6c-0.2,0.6,0.3,1.6-0.4,1.9C96,186.6,95.7,186,95.5,185.3L95.5,185.3z M93.1,185.8 l2.1-0.5c0.1,0.2,0.2,0.5,0.3,0.7c-0.3,0.5-0.9,0.3-1.4,0.3c0.2,0.7,0.2,1.3-0.3,1.6C93.2,187.7,93.3,186.6,93.1,185.8L93.1,185.8z M88,187l4.3-1c0.3,1.1,0.6,2.2,1,3.2c-0.4,0.2-0.2,0.7-0.7,0.4c-0.3,1.8,0.8,1.4,0.6,3.4c0.6-0.2,0.5-0.9,0.7-1.3 c0.5,0.3,1,0.4,1.3,1c0.4,0,0.7-0.2,0.9-0.4c0.2,1.1,0.5,0,0.5,0.7l-3.8,0.9c-0.1-0.3-0.3-0.5-0.6-0.5c0.1,0.2,0.2,0.4,0.2,0.6h0 c-0.7,0.2-1.4,0.5-2,0.9c-0.1-0.3-0.1-0.7,0-1.1C89.1,192.1,88.8,189.4,88,187L88,187z M83.5,188l4.1-0.9c0.3,1.4,0.8,2.7,1.4,4 c-0.2,0-0.3-0.1-0.4-0.1c0.2,0.8,0.6,0.6,0.8,0.7c0,1.2,0.4,2.4,0.9,3.4c-1.5,1.3-2.2,3.3-1.8,5.3l9.8,42.7 c-0.3-1.2-0.8-2.4-1.4-3.6c0.2,0.9,0.7,1.4,0.1,1.5c1.2,1.7,0.9,3.8,1.7,5.6c0-0.9,0-1.9-0.2-2.8l15.7,68.5l-1.8,0.4l0,0 c0.2-1.4-0.4-5.2-1.7-4.9c0.8,0,0.7,1.8,1.3,2.1c-0.2-0.1-0.5-0.1-0.7,0.1c-0.1,0.1-0.1,0.3,0,0.5c0.4,0.7,0.7,1.5,0.9,2.2 l-5.7,1.3l-12.3-53.8l0,0c-0.1-0.7-0.3-1.4-0.5-2L84,216.1c0.8,1.2,1.2,3.2,2.1,3.6c-0.1-1.1-1.7-4.6-1.4-5.4 c-1.2-2.4-1.4-5-2.6-6.7l-0.3-1.3l0,0l0,0L79.2,195c-0.3-1.1-0.2-2.3,0.3-3.4c0.5,2,1.2,3.9,2.1,5.7c0.4-1.9-1.1-3.3-1.4-5.4 c0,0,0.6-0.1,0.6-0.1c-0.1-0.3-0.5-0.6-0.9-1c0.7-1.1,1.7-2,2.9-2.5c0.2,1.2,0.7,2.2,1.6,3c-0.4-0.8-0.8-2-1.2-3.2 C83.2,188.1,83.4,188.1,83.5,188L83.5,188z"></path> <path class="st0" d="M218.1,308.4c-0.5-0.4-0.7-1-0.8-1.6C217.7,307,218.4,307.7,218.1,308.4 M205.9,318.4c0-0.3-0.3-1.9-0.2-1.9 c0.3,0,1.1,1.3,0.6,1.8c0.2,0.5,0.2-0.3,0.6,0.1c-0.1,0.2-0.1,0.5-0.1,0.7c-0.4-0.3-0.8-0.5-1.2-0.6 C205.7,318.2,205.9,318.3,205.9,318.4L205.9,318.4z M189.9,321.4c0.1-0.4-0.2-1.1,0.1-1.3c-0.8-1.7-0.4-1.8,0.2,0 c-0.4,0.1,0.2,0.9-0.2,1.1C190.5,321.7,190.3,321.9,189.9,321.4z M186.9,321.2c-0.8-0.9,0.1-2.6-1.1-3.7 C186.3,317,187.2,320,186.9,321.2L186.9,321.2z M218.7,310.4c-0.2,0.1-0.4-0.9-0.8-1.8c0.2-0.1,0.3-0.3,0.3-0.5 C218.1,308.6,218.7,309.6,218.7,310.4L218.7,310.4z M180.1,316.8c0.4-0.4,1.6,1.8,0.6,0.8C180.5,317.4,180.3,317.1,180.1,316.8 L180.1,316.8z M220,305.3c-0.3-0.5-0.6-1-0.8-1.6c-0.5-0.5,0.3,0.5,0.7,0.3C219.6,304.5,220.4,304.7,220,305.3L220,305.3z M224.1,305.2c-0.6-0.4-0.8-1.8-0.7-3.2C224.6,302.8,223.5,303.8,224.1,305.2L224.1,305.2z M171.9,314.3c0.3,0,0.5,0,0.8,0.1 c0,0.2-0.1,0.5-0.2,0.7C172.2,315,172.1,314.5,171.9,314.3L171.9,314.3z M154.1,309.6L154.1,309.6L154.1,309.6L154.1,309.6z M208.1,319.4c-2.4,1.1-4.9,2-7.5,2.7c-4.8,1.3-9.9,2-14.9,1.9c-0.3-0.7-0.6-1.4-1-2c0.1,0.7,0.2,1.4,0.4,2c-1,0-2-0.1-3-0.2 c0-0.6,0.2-1.3-0.4-1.6c0.3,0.5,0,1.1,0.1,1.6c-1.7-0.2-3.4-0.4-5.1-0.8c-0.5-2.1-1.2-4.1-2.1-6c0.2,1.2,0.3,1.9-0.1,2.4 c1.3,0.1,1.3,2,1.4,3.4c-8.3-1.7-15.8-6.1-21.3-12.4c0-0.2,0-0.4,0-0.5c3.6,1.6,7.4,2.9,11.3,3.6c0.5,1.1,0.3,2.2,1.2,2.8 c-0.5-0.9-0.5-1.9-1-2.8c1.7,0.3,3.5,0.6,5.3,0.8c0.5,1.4,1.4,3.7,1.6,3.5c-0.4-1.1-0.5-2.3-0.2-3.4c2.7,0.2,5.4,0.3,8,0.1 c0,0.5,0.1,0.8,0.3,0.9c0.2-0.3,0.3-0.6,0.3-1c0.7,0,1.4-0.1,2.1-0.1c0.1,0.2,0.2,0.3,0.3,0.5c-0.1-0.2-0.1-0.3-0.1-0.5 c4.1-0.4,8.3-1.1,12.3-2.2c0,0.5,0,1,0.4,1.1c0-0.4,0-0.8,0.1-1.2l0.2-0.1c3.4-0.9,6.8-2.1,10.1-3.5c0.1,0.2,0.2,0.4,0.2,0.6 c-0.2,0.7-1.5,1.9-0.3,2.5c-1.5,0.6,1.1,3.5-0.2,2.9C207.5,316.1,207.9,317.7,208.1,319.4L208.1,319.4z M228.3,302.9 c-0.6,0.9-1.3,1.8-2,2.7c-0.1-0.5-0.4-0.9-0.7-1.3c-0.1,0.4,0.2,1,0.6,1.4c-0.8,0.9-1.6,1.8-2.4,2.7c-0.3-0.6-0.6-1.2,0-1.5 c-0.4-0.7-0.7-1.6-1.3-1.9c0.4,1.1,0.5,2.6,1,3.7c-1.3,1.3-2.6,2.6-4.1,3.7c-0.2-0.4-0.5-0.5-0.7-1c-0.4-0.2,0.1,0.7,0.4,1.2 c-0.2,0.2-0.4,0.3-0.7,0.5c-0.5-2.7-1.3-5.3-2.2-7.8c0.4,2.1,0.9,5.3,1.6,8.3c-0.9,0.7-1.9,1.4-2.9,2c-0.4-2-0.9-4.4-1.7-5.7 c0.8,1.6,0.6,4,1.4,5.8c-1.8,1.1-3.6,2.1-5.5,3c-0.5-1.6-0.8-3.3-1-5c0.6,0.3,0.9,1,1.5,1.2c-1.2-2-0.8-4.4-2.1-5.7 c0.6-0.1,0.4-0.6,0.1-1.3c0.6-0.3,1.3-0.6,1.9-0.9c0,0.1,0,0.1,0,0.2c0.2,0.2,0.9,0.9,0.9,0.5c-0.1-0.3-0.2-0.6-0.3-0.9 c1.6-0.8,3.2-1.7,4.7-2.6c0.1,0,0.1,0,0.2,0c0,0,0-0.1,0-0.1c0.9-0.5,1.8-1.1,2.6-1.7c0.3,0.8,0.5,1.7,0.5,2.6 c0.7-0.7,0.5-1.8-0.1-2.9c1.5-1,2.9-2.1,4.2-3.2c0.2,1.1,0.5,2.1,0.9,3.2c0.1-1.1-0.2-2.3-0.8-3.2c0.4-0.3,0.8-0.6,1.2-1 c0.3,0.4,0.5,0.9,0.9,1.3c-0.3-0.4-0.5-0.9-0.7-1.5c0.7-0.6,1.3-1.2,2-1.8C226.5,298.4,227.3,300.7,228.3,302.9L228.3,302.9z M231.7,296.9c-0.9,2.1-2,4.1-3.3,6c-0.6-1.5-0.5-2.9-1.5-3.9c0-1.2-0.2-2.3-0.6-3.4c1.4-1.3,2.7-2.8,3.9-4.3 C230.7,293.3,231.1,295.1,231.7,296.9L231.7,296.9z M234.6,284.7c-0.2,4-1.1,7.9-2.7,11.6c-0.5-1.7-1-3.5-1.5-5.2 C232,289.1,233.4,287,234.6,284.7L234.6,284.7z"></path> <path class="st1" d="M101.6,220.9l2.5-22.7l7.2-1.6l12,19.4l-5.7,1.3l-1.9-3.5l-8.1,1.8l-0.2,4L101.6,220.9z M107.8,211.2l5.7-1.3 l-3.7-6.4c-0.1-0.2-0.3-0.5-0.5-1s-0.5-1-0.9-1.7c0,0.5,0,1.1,0,1.6s0,1-0.1,1.4L107.8,211.2z"></path> <path class="st1" d="M137.2,197.5l3.3,14.5c0.6,1.8,0.2,3.8-0.9,5.3c-1.1,1.3-3,2.3-5.8,3c-1.8,0.5-3.8,0.5-5.6,0 c-1.4-0.5-2.5-1.6-2.8-3.1l5.3-1.2c0.2,0.4,0.5,0.7,1,0.9c0.6,0.2,1.2,0.2,1.8,0c0.9-0.1,1.6-0.6,2.1-1.3c0.3-1.1,0.2-2.4-0.1-3.5 l-0.3-1.3c-0.3,1-0.8,1.8-1.6,2.5c-0.8,0.7-1.8,1.1-2.8,1.3c-1.8,0.5-3.6,0.1-5.1-1c-1.6-1.3-2.6-3.1-3-5.2c-0.6-2-0.4-4.1,0.6-6 c0.9-1.7,2.5-2.8,4.4-3.2c1-0.2,2-0.2,3,0c1,0.3,1.8,0.9,2.5,1.7l-0.5-2.3L137.2,197.5z M134.3,205.8c-0.2-1-0.7-1.9-1.5-2.4 c-0.8-0.5-1.8-0.7-2.7-0.4c-0.9,0.2-1.8,0.7-2.3,1.5c-0.9,1.8-0.4,4,1.2,5.3c0.8,0.5,1.8,0.7,2.7,0.4c0.9-0.2,1.7-0.7,2.2-1.5 C134.5,207.7,134.6,206.7,134.3,205.8L134.3,205.8z"></path> <path class="st1" d="M144.4,211.1l-3.3-14.5l4.8-1.1l0.8,3.4c0.1-1.2,0.6-2.3,1.4-3.3c0.8-0.8,1.8-1.4,2.9-1.6 c0.2,0,0.4-0.1,0.6-0.1s0.4-0.1,0.6-0.1l0.6,4.8c-0.3,0-0.6,0-1,0c-0.3,0-0.6,0.1-0.9,0.1c-1.1,0.2-2.1,0.8-2.6,1.8 c-0.5,1.1-0.6,2.3-0.3,3.5l1.4,6L144.4,211.1z"></path> <path class="st1" d="M163.9,184.1l-3.3,6l-2.2,0.5l1.5-5.6L163.9,184.1z M171.1,198.4l-11,2.5c0.2,1,0.7,1.8,1.4,2.4 c0.8,0.5,1.7,0.6,2.6,0.4c0.7-0.1,1.3-0.4,1.9-0.9c0.5-0.4,0.8-1,0.9-1.6l4.2,0.7c-0.2,1.2-0.9,2.3-1.9,3.1 c-1.2,0.9-2.6,1.6-4.1,1.9c-2.2,0.6-4.5,0.4-6.6-0.7c-1.9-1.1-3.2-2.9-3.6-5c-0.5-2.1-0.2-4.3,1-6.2c1.2-1.9,3.1-3.1,5.3-3.6 c2.1-0.6,4.4-0.2,6.2,1c1.9,1.4,3.1,3.4,3.5,5.7L171.1,198.4z M165.4,196.7c-0.2-0.7-0.7-1.4-1.4-1.8c-0.6-0.4-1.4-0.5-2.1-0.3 c-0.7,0.1-1.4,0.5-1.8,1.1c-0.4,0.7-0.6,1.5-0.5,2.3L165.4,196.7z"></path> <path class="st1" d="M187.7,186l3.3,14.5c0.6,1.8,0.2,3.8-0.9,5.3c-1.1,1.3-3,2.3-5.8,3c-1.8,0.5-3.8,0.5-5.6,0 c-1.4-0.5-2.5-1.6-2.8-3.1l5.3-1.2c0.2,0.4,0.5,0.8,1,0.9c0.6,0.2,1.2,0.2,1.8,0c0.9-0.1,1.6-0.6,2.1-1.3c0.3-1.1,0.2-2.4-0.1-3.5 l-0.3-1.3c-0.3,1-0.8,1.8-1.6,2.5c-0.8,0.7-1.8,1.1-2.8,1.3c-1.8,0.5-3.6,0.1-5.1-1c-1.6-1.3-2.6-3.1-3-5.2c-0.6-2-0.4-4.1,0.6-6 c0.9-1.7,2.5-2.8,4.4-3.2c1-0.2,2-0.2,3,0c1,0.3,1.8,0.9,2.5,1.7l-0.5-2.3L187.7,186z M184.8,194.2c-0.2-1-0.7-1.9-1.5-2.4 c-0.8-0.5-1.8-0.7-2.7-0.4c-0.9,0.2-1.8,0.7-2.3,1.5c-0.9,1.8-0.4,4,1.2,5.3c0.8,0.5,1.8,0.7,2.7,0.4c0.9-0.2,1.7-0.7,2.2-1.5 C185,196.2,185.1,195.1,184.8,194.2z"></path> <path class="st1" d="M207.1,181.5l3.3,14.5l-4.7,1.1l-0.5-2.3c-0.4,1-1,2-1.8,2.7c-0.8,0.7-1.8,1.2-2.8,1.4 c-1.8,0.5-3.7,0.1-5.1-1.1c-1.6-1.4-2.7-3.2-3-5.3c-0.6-2-0.4-4.2,0.5-6.1c0.9-1.7,2.5-2.9,4.4-3.2c1-0.2,2-0.2,3,0.1 c1,0.3,1.8,0.9,2.5,1.7l-0.5-2.4L207.1,181.5z M204.3,189.8c-0.2-1-0.7-1.9-1.5-2.5c-1.7-1-3.8-0.5-4.9,1.1 c-0.5,0.9-0.6,1.9-0.3,2.9c0.2,1,0.7,1.9,1.5,2.5c1.7,1,3.8,0.5,4.9-1.1C204.4,191.8,204.5,190.7,204.3,189.8L204.3,189.8z"></path> <rect x="211.9" y="171.9" transform="matrix(0.9751 -0.2217 0.2217 0.9751 -35.3051 52.1024)" class="st1" width="5.3" height="22.8"></rect> <path class="st1" d="M237.1,183.3l-11,2.5c0.2,1,0.7,1.8,1.4,2.4c0.8,0.5,1.7,0.6,2.6,0.4c0.7-0.1,1.3-0.4,1.9-0.9 c0.5-0.4,0.8-1,0.9-1.6l4.2,0.7c-0.2,1.2-0.9,2.3-1.9,3.1c-1.2,0.9-2.6,1.6-4.1,1.9c-2.2,0.6-4.5,0.4-6.6-0.7 c-1.9-1.1-3.2-2.9-3.6-5c-0.5-2.1-0.2-4.3,1-6.2c1.2-1.9,3.1-3.1,5.3-3.6c2.1-0.6,4.4-0.2,6.2,1c1.9,1.4,3.1,3.4,3.5,5.7 L237.1,183.3z M231.4,181.6c-0.2-0.7-0.7-1.4-1.4-1.8c-0.6-0.4-1.4-0.5-2.1-0.3c-0.7,0.1-1.4,0.5-1.8,1.1c-0.4,0.7-0.6,1.5-0.5,2.3 L231.4,181.6z"></path> <path class="st1" d="M155.1,223.9l1.7,7.4c0.3,1.2,0.5,2.5,0.4,3.7c-0.1,0.9-0.4,1.7-0.8,2.4c-0.5,0.8-1.2,1.5-2.1,2 c-1,0.6-2.1,1-3.3,1.2c-1.1,0.3-2.3,0.4-3.5,0.3c-1-0.1-1.9-0.4-2.8-0.9c-0.7-0.4-1.4-1.1-1.8-1.8c-0.6-1.1-1-2.3-1.2-3.6l-1.7-7.4 l4.9-1.1l1.8,7.8c0.1,0.9,0.6,1.8,1.2,2.5c0.6,0.5,1.4,0.6,2.1,0.4c0.8-0.1,1.4-0.6,1.8-1.2c0.3-0.9,0.3-1.9,0-2.8l-1.8-7.8 L155.1,223.9z"></path> <path class="st1" d="M162,237.6l-3.3-14.5l4.7-1.1l0.7,2.9c0.3-1.2,0.9-2.2,1.8-3.1c0.8-0.8,1.9-1.3,3-1.5c0.9-0.2,1.7-0.3,2.6-0.1 c1.5,0.2,2.7,1.1,3.3,2.5c0.4,1,0.7,2,1,3.1l1.9,8.3l-5.1,1.2l-1.8-7.8c-0.1-0.9-0.5-1.7-1.1-2.4c-0.6-0.5-1.3-0.6-2-0.4 c-1,0.1-1.7,0.8-2.1,1.7c-0.3,1.3-0.3,2.7,0.1,4l1.4,6.1L162,237.6z"></path> <path class="st1" d="M193.5,215.1l3.3,14.5l-4.7,1.1l-0.5-2.3c-0.4,1-1,2-1.8,2.7c-0.8,0.7-1.8,1.2-2.8,1.4 c-1.8,0.5-3.7,0.1-5.1-1.1c-1.6-1.4-2.7-3.2-3-5.3c-0.6-2-0.4-4.2,0.5-6.1c0.9-1.7,2.5-2.9,4.4-3.2c1-0.2,2-0.2,3,0.1 c1,0.3,1.8,0.9,2.5,1.7l-0.5-2.4L193.5,215.1z M190.6,223.4c-0.2-1-0.7-1.9-1.5-2.5c-1.7-1-3.8-0.5-4.9,1.1 c-0.5,0.9-0.6,1.9-0.3,2.9c0.2,1,0.7,1.9,1.5,2.5c1.7,1,3.8,0.5,4.9-1.1C190.8,225.4,190.9,224.4,190.6,223.4z"></path> <path class="st1" d="M199.1,227.8l0.2-4.1c0.9,0.5,1.8,0.8,2.8,0.9c0.9,0.1,1.9,0.1,2.8-0.1c0.5-0.1,1-0.3,1.4-0.6 c0.3-0.3,0.4-0.6,0.3-1c-0.1-0.6-0.9-1-2.3-1c-0.5,0-0.8,0-1.1,0c-1.3,0-2.6-0.3-3.7-0.9c-0.9-0.5-1.5-1.4-1.6-2.4 c-0.3-1.3,0-2.7,0.8-3.7c1-1.2,2.4-2,4-2.2c1-0.2,1.9-0.3,2.9-0.3c1.1,0,2.1,0.1,3.2,0.3l-0.3,3.8c-0.7-0.3-1.5-0.5-2.3-0.6 c-0.7-0.1-1.5,0-2.2,0.1c-0.5,0.1-0.9,0.3-1.3,0.6c-0.2,0.2-0.4,0.6-0.3,0.9c0.1,0.5,0.9,0.8,2.3,0.9c0.3,0,0.6,0,0.7,0 c1.4,0,2.8,0.3,4.1,0.9c0.9,0.6,1.5,1.5,1.7,2.5c0.4,1.4,0,2.9-0.9,4c-1.1,1.3-2.6,2.1-4.2,2.4c-1.2,0.3-2.4,0.4-3.6,0.4 C201.3,228.4,200.2,228.2,199.1,227.8"></path> <path class="st1" d="M133.9,259.3l3.3,14.5c0.6,1.8,0.2,3.8-0.9,5.3c-1.1,1.3-3,2.3-5.8,3c-1.8,0.5-3.8,0.5-5.6,0 c-1.4-0.5-2.5-1.6-2.8-3.1l5.3-1.2c0.2,0.4,0.5,0.7,1,0.9c0.6,0.2,1.2,0.2,1.8,0c0.9-0.1,1.6-0.6,2.1-1.3c0.3-1.1,0.2-2.4-0.1-3.5 l-0.3-1.3c-0.3,1-0.8,1.8-1.6,2.5c-0.8,0.7-1.8,1.1-2.8,1.3c-1.8,0.5-3.6,0.1-5.1-1c-1.6-1.3-2.6-3.1-3-5.2c-0.6-2-0.4-4.1,0.6-6 c0.9-1.7,2.5-2.8,4.4-3.2c1-0.2,2-0.2,3,0c1,0.3,1.8,0.9,2.5,1.7l-0.5-2.3L133.9,259.3z M131,267.5c-0.2-1-0.7-1.9-1.5-2.4 c-0.8-0.5-1.8-0.7-2.7-0.4c-0.9,0.2-1.8,0.7-2.3,1.5c-0.9,1.8-0.4,4,1.2,5.3c0.8,0.5,1.8,0.7,2.7,0.4c0.9-0.2,1.7-0.7,2.2-1.5 C131.2,269.5,131.3,268.5,131,267.5z"></path> <path class="st1" d="M154.8,262.2c0.2,1,0.3,2.1,0.1,3.1c-0.2,1-0.6,2-1.2,2.9c-0.6,0.9-1.4,1.7-2.2,2.3c-0.9,0.6-1.9,1-3,1.3 c-1.1,0.2-2.2,0.3-3.3,0.1c-1.1-0.2-2.1-0.5-3-1.1c-1.8-1.1-3.2-2.9-3.6-5c-0.2-1-0.3-2.1-0.1-3.1c0.4-2.1,1.6-4,3.4-5.2 c1.9-1.2,4.1-1.7,6.3-1.4c2.1,0.3,4.1,1.5,5.3,3.2C154.2,260.2,154.6,261.1,154.8,262.2 M149.7,263.3c-0.2-0.9-0.7-1.8-1.4-2.4 c-1.5-1-3.5-0.5-4.4,1c0,0,0,0,0,0.1c-0.7,1.8-0.3,3.8,1.2,5.1c1.5,1,3.5,0.5,4.5-1c0,0,0,0,0,0C149.9,265.2,150,264.2,149.7,263.3 L149.7,263.3z"></path> <path class="st1" d="M160.2,268.5l-2.5-10.9l-2.2,0.5l-0.8-3.6l2.2-0.5l-1-4.3l5-1.1l1,4.3l2.2-0.5l0.8,3.6l-2.2,0.5l2.5,10.9 L160.2,268.5z"></path> <path class="st1" d="M182,248.3l3.3,14.5l-4.7,1.1l-0.5-2.3c-0.4,1-1,2-1.8,2.7c-0.8,0.7-1.8,1.2-2.8,1.4c-1.8,0.5-3.7,0.1-5.1-1.1 c-1.6-1.4-2.7-3.2-3-5.3c-0.6-2-0.4-4.2,0.5-6.1c0.9-1.7,2.5-2.9,4.4-3.2c1-0.2,2-0.2,3,0.1c1,0.3,1.8,0.9,2.5,1.7l-0.5-2.4 L182,248.3z M179.2,256.5c-0.2-1-0.7-1.9-1.5-2.5c-1.7-1-3.8-0.5-4.9,1.1c-0.5,0.9-0.6,1.9-0.3,2.9c0.2,1,0.7,1.9,1.5,2.5 c1.7,1,3.8,0.5,4.9-1.1C179.3,258.5,179.4,257.5,179.2,256.5z"></path> <path class="st1" d="M187.6,261l0.2-4.2c0.9,0.5,1.8,0.8,2.8,0.9c0.9,0.1,1.9,0.1,2.8-0.1c0.5-0.1,1-0.3,1.4-0.6 c0.3-0.3,0.4-0.6,0.3-1c-0.1-0.6-0.9-1-2.3-1c-0.5,0-0.8,0-1.1,0c-1.3,0-2.6-0.3-3.7-0.9c-0.9-0.6-1.5-1.4-1.6-2.4 c-0.3-1.3,0-2.7,0.8-3.7c1-1.2,2.4-2,4-2.2c1-0.2,1.9-0.3,2.9-0.3c1.1,0,2.1,0.1,3.2,0.3l-0.3,3.8c-0.7-0.3-1.5-0.5-2.3-0.6 c-0.7-0.1-1.5,0-2.2,0.1c-0.5,0.1-0.9,0.3-1.3,0.6c-0.2,0.2-0.4,0.6-0.3,0.9c0.1,0.5,0.9,0.8,2.3,0.9c0.3,0,0.6,0,0.7,0 c1.4,0,2.8,0.3,4.1,0.9c0.9,0.6,1.5,1.5,1.7,2.5c0.4,1.4,0,2.9-0.9,4c-1.1,1.3-2.6,2.1-4.2,2.4c-1.2,0.3-2.4,0.4-3.6,0.4 C189.8,261.5,188.7,261.3,187.6,261"></path> <path class="st1" d="M223.2,230.7l5.1,22.3l-4.7,1.1l-0.5-2.3c-0.4,1-0.9,1.9-1.7,2.7c-0.7,0.7-1.6,1.1-2.5,1.3 c-1.8,0.5-3.8,0.1-5.4-1c-1.6-1.3-2.7-3.2-3.1-5.3c-0.6-2-0.4-4.1,0.5-6c0.8-1.7,2.4-2.8,4.2-3.2c1-0.3,2.1-0.3,3.1,0 c1,0.3,1.9,0.9,2.6,1.7c-0.1-0.3-0.3-0.7-0.4-1.1s-0.2-0.9-0.4-1.4l-1.7-7.6L223.2,230.7z M222.1,246.7c-0.2-1-0.7-1.9-1.5-2.5 c-1.7-1-3.8-0.5-4.9,1.1c-0.8,1.9-0.3,4,1.2,5.4c0.8,0.5,1.8,0.7,2.7,0.4c0.9-0.2,1.7-0.7,2.2-1.5 C222.3,248.7,222.4,247.7,222.1,246.7L222.1,246.7z"></path> <path class="st1" d="M245.7,242.4l-11,2.5c0.2,1,0.7,1.8,1.4,2.4c0.8,0.5,1.7,0.6,2.6,0.4c0.7-0.1,1.3-0.4,1.9-0.9 c0.5-0.4,0.8-1,0.9-1.6l4.2,0.7c-0.2,1.2-0.9,2.3-1.9,3.1c-1.2,0.9-2.6,1.6-4.1,1.9c-2.2,0.6-4.5,0.4-6.6-0.7 c-1.9-1.1-3.2-2.9-3.6-5c-0.5-2.1-0.2-4.3,1-6.2c1.2-1.9,3.1-3.1,5.3-3.6c2.1-0.6,4.4-0.2,6.2,1c1.9,1.4,3.1,3.4,3.5,5.7 L245.7,242.4z M240,240.6c-0.2-0.7-0.7-1.4-1.4-1.8c-0.6-0.4-1.4-0.5-2.1-0.3c-0.7,0.1-1.4,0.5-1.8,1.1c-0.4,0.7-0.6,1.5-0.5,2.3 L240,240.6z"></path> <path class="st1" d="M150.9,285.9l3.3,14.5l-4.7,1.1l-0.5-2.3c-0.4,1-1,2-1.8,2.7c-0.8,0.7-1.8,1.2-2.8,1.4 c-1.8,0.5-3.7,0.1-5.1-1.1c-1.6-1.4-2.7-3.2-3-5.3c-0.6-2-0.4-4.2,0.5-6.1c0.9-1.7,2.5-2.9,4.4-3.2c1-0.2,2-0.2,3,0.1 c1,0.3,1.8,0.9,2.5,1.7l-0.5-2.4L150.9,285.9z M148,294.2c-0.2-1-0.7-1.9-1.5-2.5c-1.7-1-3.8-0.5-4.9,1.1c-0.5,0.9-0.6,1.9-0.3,2.9 c0.2,1,0.7,1.9,1.5,2.5c1.7,1,3.8,0.5,4.9-1.1C148.2,296.2,148.3,295.1,148,294.2z"></path> <rect x="155.6" y="276.3" transform="matrix(0.975 -0.222 0.222 0.975 -59.9318 42.3059)" class="st1" width="5.3" height="22.8"></rect> <path class="st1" d="M180.8,287.7l-11,2.5c0.2,1,0.7,1.8,1.5,2.4c0.8,0.5,1.7,0.6,2.6,0.4c0.7-0.1,1.3-0.4,1.9-0.9 c0.5-0.4,0.8-1,0.9-1.6l4.2,0.7c-0.2,1.2-0.9,2.3-1.9,3.1c-1.2,0.9-2.6,1.6-4.1,1.9c-2.2,0.6-4.5,0.4-6.6-0.7 c-1.9-1.1-3.2-2.9-3.6-5c-0.5-2.1-0.2-4.3,1-6.2c1.2-1.9,3.1-3.1,5.3-3.6c2.1-0.6,4.4-0.2,6.2,1c1.9,1.4,3.1,3.5,3.5,5.7 L180.8,287.7z M175.1,286c-0.2-0.7-0.7-1.4-1.4-1.8c-0.6-0.4-1.4-0.5-2.1-0.3c-0.7,0.1-1.4,0.5-1.8,1.1c-0.4,0.7-0.6,1.5-0.5,2.3 L175.1,286z"></path> <path class="st1" d="M197.4,275.2l3.3,14.5c0.6,1.8,0.2,3.8-0.9,5.3c-1.1,1.3-3,2.3-5.8,3c-1.8,0.5-3.8,0.5-5.6,0 c-1.4-0.5-2.5-1.6-2.8-3.1l5.3-1.2c0.2,0.4,0.5,0.7,1,0.9c0.6,0.2,1.2,0.2,1.8,0c0.9-0.1,1.6-0.6,2.1-1.3c0.3-1.1,0.2-2.4-0.1-3.5 l-0.3-1.3c-0.3,1-0.8,1.8-1.6,2.5c-0.8,0.7-1.8,1.1-2.8,1.3c-1.8,0.5-3.6,0.1-5.1-1c-1.6-1.3-2.6-3.1-3-5.2c-0.6-2-0.4-4.1,0.6-6 c0.9-1.7,2.5-2.8,4.4-3.2c1-0.2,2-0.2,3,0c1,0.3,1.8,0.9,2.5,1.7l-0.5-2.3L197.4,275.2z M194.6,283.5c-0.2-1-0.7-1.9-1.5-2.4 c-0.8-0.5-1.8-0.7-2.7-0.4c-0.9,0.2-1.8,0.7-2.3,1.5c-0.9,1.8-0.4,4,1.2,5.3c0.8,0.5,1.8,0.7,2.7,0.4c0.9-0.2,1.7-0.7,2.2-1.5 C194.7,285.4,194.8,284.4,194.6,283.5z"></path> <path class="st1" d="M204.6,288.8l-3.3-14.5l4.8-1.1l0.8,3.4c0.1-1.2,0.6-2.3,1.4-3.3c0.8-0.8,1.8-1.4,2.9-1.6 c0.2,0,0.4-0.1,0.6-0.1s0.4-0.1,0.6-0.1l0.6,4.8c-0.3,0-0.6,0-1,0c-0.3,0-0.6,0.1-0.9,0.1c-1.1,0.2-2.1,0.8-2.6,1.8 c-0.5,1.1-0.6,2.3-0.3,3.5l1.4,6L204.6,288.8z"></path> <path class="st1" d="M219.7,262.7l-3.3,6l-2.2,0.5l1.5-5.6L219.7,262.7z M217.9,285.8l-3.3-14.5l5.1-1.2l3.3,14.5L217.9,285.8z"></path> <path class="st1" d="M239.2,265.7l3.3,14.5l-4.7,1.1l-0.5-2.3c-0.4,1-1,2-1.8,2.7c-0.8,0.7-1.8,1.2-2.8,1.4 c-1.8,0.5-3.7,0.1-5.1-1.1c-1.6-1.4-2.7-3.2-3-5.3c-0.6-2-0.4-4.2,0.5-6.1c0.9-1.7,2.5-2.9,4.4-3.2c1-0.2,2-0.2,3,0.1 c1,0.3,1.8,0.9,2.5,1.7l-0.5-2.4L239.2,265.7z M236.3,273.9c-0.2-1-0.7-1.9-1.5-2.5c-1.7-1-3.8-0.5-4.9,1.1 c-0.5,0.9-0.6,1.9-0.3,2.9c0.2,1,0.7,1.9,1.5,2.5c1.7,1,3.8,0.5,4.9-1.1C236.5,275.9,236.6,274.9,236.3,273.9L236.3,273.9z"></path> </g> </svg> 