<?xml version="1.0" encoding="UTF-8"?> <svg xmlns="http://www.w3.org/2000/svg" xmlns:xlink="http://www.w3.org/1999/xlink" width="85.995" height="79.432" viewBox="0 0 85.995 79.432"><defs><clipPath id="a"><rect width="85.995" height="79.432" fill="#694d1e"></rect></clipPath></defs><g transform="translate(-384 -276)"><g transform="translate(384 276)"><g transform="translate(0)" clip-path="url(#a)"><path d="M514.669,374.043l1.705-4.538a2.518,2.518,0,0,0-1.418-3.223l-13.351-5.375a2.519,2.519,0,0,0-3.187,1.2l-6.066,11.941Zm0,0" transform="translate(-474.118 -346.466)" fill="#694d1e"></path><path d="M399.674,469.809l-2.641,5.2c-1.647,3.154-2.786,11.02-1.788,16.467a6.949,6.949,0,0,0,2.171,3.889l-5.6,12.626-4.351-1.752a2.52,2.52,0,1,0-1.882,4.674l13.353,5.375a2.52,2.52,0,0,0,1.881-4.675l-4.324-1.74L402.07,497.3c.136.008.272.013.409.013a7.376,7.376,0,0,0,4.04-1.2c4.748-3.107,9.813-9.358,11.018-12.679l5.121-13.625Zm0,0" transform="translate(-384 -437.193)" fill="#694d1e"></path><path d="M668,375.249l-5.943-11.7a2.52,2.52,0,0,0-3.187-1.2l-13.352,5.375a2.521,2.521,0,0,0-1.418,3.224l1.615,4.294Zm0,0" transform="translate(-600.194 -347.672)" fill="#694d1e"></path><path d="M704.141,507.712a2.519,2.519,0,0,0-3.278-1.4l-3.887,1.565-5.547-12.62a6.919,6.919,0,0,0,1.818-3.545c1-5.446-.141-13.313-1.789-16.466l-2.764-5.441H665.742l5.212,13.869c1.206,3.32,6.272,9.571,11.019,12.678a7.364,7.364,0,0,0,4.04,1.2,7.575,7.575,0,0,0,.895-.055l5.391,12.265-4.788,1.927a2.519,2.519,0,1,0,1.881,4.674l13.353-5.375a2.52,2.52,0,0,0,1.4-3.278Zm0,0" transform="translate(-618.328 -437.193)" fill="#694d1e"></path></g></g><path d="M629.068,279.425a2.467,2.467,0,1,1-2.468-2.468,2.468,2.468,0,0,1,2.468,2.468Zm0,0" transform="translate(-199.722 -0.796)" fill="#694d1e"></path><path d="M667.494,317.855a2.467,2.467,0,1,1-2.467-2.468,2.468,2.468,0,0,1,2.467,2.468Zm0,0" transform="translate(-231.681 -32.759)" fill="#694d1e"></path><path d="M592.052,316.441a2.467,2.467,0,1,1-2.468-2.468,2.467,2.467,0,0,1,2.468,2.468Zm0,0" transform="translate(-168.935 -31.583)" fill="#694d1e"></path></g></svg> 