<?xml version="1.0" encoding="UTF-8"?> <svg xmlns="http://www.w3.org/2000/svg" width="88" height="77.439" viewBox="0 0 88 77.439"><g transform="translate(-627 -501)"><path d="M634.237,515.84a12.22,12.22,0,0,0,1.546.08,9.291,9.291,0,0,0,6.531-2.116,6.429,6.429,0,0,0,1.844-4.768,5.862,5.862,0,0,0-2.144-4.649c-1.34-1.078-3.334-1.609-6.136-1.609a37.732,37.732,0,0,0-6.136.409v19.828h4.5Zm0-9.456a7.254,7.254,0,0,1,1.872-.178c2.27,0,3.554,1.105,3.554,2.953,0,2.05-1.49,3.278-3.907,3.278a6.571,6.571,0,0,1-1.518-.123Zm0,0" transform="translate(6.85 4.442)" fill="#694d1e"></path><path d="M632.258,533.673h22.409a5.131,5.131,0,0,0,5.139-5.125V506.139A5.134,5.134,0,0,0,654.667,501H632.258a5.128,5.128,0,0,0-5.125,5.139v22.409a5.125,5.125,0,0,0,5.125,5.125Zm-1.067-27.233a1.378,1.378,0,0,1,1.382-1.382h21.794a1.375,1.375,0,0,1,1.378,1.382v21.794a1.387,1.387,0,0,1-1.378,1.4H632.573a1.39,1.39,0,0,1-1.382-1.4Zm0,0" transform="translate(0.332)" fill="#694d1e"></path><path d="M639.474,518.012a8.964,8.964,0,1,0,8.966,8.962,8.948,8.948,0,0,0-8.966-8.962Zm0,11.67a2.706,2.706,0,1,1,2.708-2.708,2.711,2.711,0,0,1-2.708,2.708Zm0,0" transform="translate(8.774 42.499)" fill="#694d1e"></path><path d="M713.51,536.984l-1.462-11.929a4.4,4.4,0,0,0-4.6-3.841l-3.211.178-9.973-8.99a5.213,5.213,0,0,0-3.5-1.34H670.5a20.035,20.035,0,0,0-12.506,4.4l-11.3,9.085-15.21,3.8a4.407,4.407,0,0,0-3.32,4.264v4.373A1.158,1.158,0,0,0,627,538.146v5.807a1.494,1.494,0,0,0,1.49,1.49h8.581c-.028-.371-.108-.724-.108-1.109a11.28,11.28,0,0,1,22.56,0,10.415,10.415,0,0,1-.123,1.109h23.777a9.6,9.6,0,0,1-.112-1.109,11.275,11.275,0,0,1,22.549,0,9.6,9.6,0,0,1-.112,1.109h8.007a1.494,1.494,0,0,0,1.49-1.49v-5.464a1.477,1.477,0,0,0-1.49-1.5ZM683.436,522.32l-28.272,1.438,5.412-4.348a16.586,16.586,0,0,1,10.368-3.659h12.492Zm4.7-.231v-6.328h1.844a2.6,2.6,0,0,1,1.721.658l5.769,5.191Zm0,0" transform="translate(0 25.139)" fill="#694d1e"></path><path d="M652.664,518.012a8.964,8.964,0,1,0,8.948,8.962,8.961,8.961,0,0,0-8.948-8.962Zm0,11.67a2.706,2.706,0,1,1,2.69-2.708,2.714,2.714,0,0,1-2.69,2.708Zm0,0" transform="translate(41.689 42.499)" fill="#694d1e"></path></g></svg> 