<?xml version="1.0" encoding="UTF-8"?> <svg xmlns="http://www.w3.org/2000/svg" width="75.15" height="77.742" viewBox="0 0 75.15 77.742"><g transform="translate(-8.533 0.002)"><path d="M43.963,375.467a1.3,1.3,0,0,0-1.3,1.3v2.591a1.3,1.3,0,1,0,2.591,0v-2.591a1.3,1.3,0,0,0-1.3-1.3" transform="translate(-28.951 -318.458)" fill="#694d1e"></path><path d="M43.963,426.667a1.3,1.3,0,0,0-1.3,1.3v2.591a1.3,1.3,0,0,0,2.591,0v-2.591a1.3,1.3,0,0,0-1.3-1.3" transform="translate(-28.951 -361.884)" fill="#694d1e"></path><path d="M43.963,324.267a1.3,1.3,0,0,0-1.3,1.3v2.591a1.3,1.3,0,1,0,2.591,0v-2.591a1.3,1.3,0,0,0-1.3-1.3" transform="translate(-28.951 -275.032)" fill="#694d1e"></path><path d="M78.1,375.467a1.3,1.3,0,0,0-1.3,1.3v2.591a1.3,1.3,0,0,0,2.591,0v-2.591a1.3,1.3,0,0,0-1.3-1.3" transform="translate(-57.901 -318.458)" fill="#694d1e"></path><path d="M78.1,324.267a1.3,1.3,0,0,0-1.3,1.3v2.591a1.3,1.3,0,0,0,2.591,0v-2.591a1.3,1.3,0,0,0-1.3-1.3" transform="translate(-57.901 -275.032)" fill="#694d1e"></path><path d="M78.1,426.667a1.3,1.3,0,0,0-1.3,1.3v2.591a1.3,1.3,0,0,0,2.591,0v-2.591a1.3,1.3,0,0,0-1.3-1.3" transform="translate(-57.901 -361.884)" fill="#694d1e"></path><path d="M78.5,23.573a1.3,1.3,0,1,1-2.591,0V20.982a1.3,1.3,0,1,1,2.591,0Zm0,7.774a1.3,1.3,0,1,1-2.591,0V28.756a1.3,1.3,0,1,1,2.591,0Zm0,7.774a1.3,1.3,0,1,1-2.591,0V36.53a1.3,1.3,0,1,1,2.591,0Zm0,7.774a1.3,1.3,0,1,1-2.591,0V44.3a1.3,1.3,0,1,1,2.591,0Zm0,7.774a1.3,1.3,0,1,1-2.591,0V52.078a1.3,1.3,0,1,1,2.591,0Zm0,7.774a1.3,1.3,0,1,1-2.591,0V59.853a1.3,1.3,0,1,1,2.591,0Zm0,7.774a1.3,1.3,0,1,1-2.591,0V67.627a1.3,1.3,0,1,1,2.591,0ZM73.318,23.573a1.3,1.3,0,1,1-2.591,0V20.982a1.3,1.3,0,1,1,2.591,0Zm0,7.774a1.3,1.3,0,1,1-2.591,0V28.756a1.3,1.3,0,1,1,2.591,0Zm0,7.774a1.3,1.3,0,1,1-2.591,0V36.53a1.3,1.3,0,1,1,2.591,0Zm0,7.774a1.3,1.3,0,1,1-2.591,0V44.3a1.3,1.3,0,1,1,2.591,0Zm0,7.774a1.3,1.3,0,1,1-2.591,0V52.078a1.3,1.3,0,1,1,2.591,0Zm0,7.774a1.3,1.3,0,1,1-2.591,0V59.853a1.3,1.3,0,1,1,2.591,0Zm0,7.774a1.3,1.3,0,1,1-2.591,0V67.627a1.3,1.3,0,1,1,2.591,0ZM37.038,71.261V38.869H65.544V75.148H62.952V42.756a1.3,1.3,0,0,0-2.591,0V75.148H57.769V42.756a1.3,1.3,0,0,0-2.591,0V75.148H52.587V42.756a1.3,1.3,0,0,0-2.591,0V75.148H47.4V42.756a1.3,1.3,0,0,0-2.591,0V75.148H42.221V42.756a1.3,1.3,0,0,0-2.591,0V75.148H37.038ZM11.124,46.643H34.447v2.591h-9.07a1.3,1.3,0,0,0-1.3,1.3V75.148H11.124Zm18.14-31.1a1.3,1.3,0,1,1,2.591,0V44.052H29.264Zm1.3,49.236h3.887v2.591H30.56a1.3,1.3,0,0,1,0-2.591Zm0-5.183h3.887v2.591H30.56a1.3,1.3,0,1,1,0-2.591Zm3.887-2.591H30.56a1.3,1.3,0,0,1,0-2.591h3.887ZM30.56,72.557a1.3,1.3,0,0,1,0-2.591h3.887v2.591Zm3.887-57.011a1.3,1.3,0,0,1,2.591,0V36.278h-1.3a1.3,1.3,0,0,0-1.3,1.3Zm0-9.07a1.3,1.3,0,0,1,2.591,0v3.887a1.3,1.3,0,0,1-2.591,0Zm6.479,7.774a1.3,1.3,0,0,1,1.3,1.3V36.278H39.63V15.546a1.3,1.3,0,0,1,1.3-1.3Zm-1.3-7.774a1.3,1.3,0,0,1,2.591,0v3.887a1.3,1.3,0,0,1-2.591,0Zm6.479,7.774a1.3,1.3,0,0,1,1.3,1.3V36.278H44.812V15.546a1.3,1.3,0,0,1,1.3-1.3Zm36.279,0H79.8V10.364a1.3,1.3,0,0,0-1.3-1.3H70.726a1.3,1.3,0,0,0-1.3,1.3v3.887H66.839a1.3,1.3,0,0,0-1.3,1.3V36.278h-1.3V32.39a1.3,1.3,0,0,0-1.3-1.3h-1.3V29.8a1.3,1.3,0,0,0-2.591,0v1.3h-1.3a1.3,1.3,0,0,0-1.3,1.3v3.887H52.587V10.364a1.3,1.3,0,0,0-1.3-1.3H47.4V1.294a1.3,1.3,0,0,0-1.3-1.3H30.56a1.3,1.3,0,0,0-1.3,1.3V9.068H25.377a1.3,1.3,0,0,0-1.3,1.3V44.052H21.49V40.165a1.3,1.3,0,0,0-1.3-1.3H12.42a1.3,1.3,0,0,0-1.3,1.3v3.887h-1.3a1.3,1.3,0,0,0-1.3,1.3v31.1a1.3,1.3,0,0,0,1.3,1.3H82.387a1.3,1.3,0,0,0,1.3-1.3v-60.9a1.3,1.3,0,0,0-1.3-1.3Z" fill="#694d1e"></path></g></svg> 